# xmcd
#
# Track frame offsets:
#	150
#	26055
#	48404
#	67063
#	88584
#	114981
#	133272
#	153151
#	176486
#	198432
#	225906
#	243407
#	266088
#	293512
#	314166
#
# Disc length: 4426 seconds
#
# Revision: 0
# Processed by: cddbd v1.5.2PL0 Copyright (c) Steve Scherf et al.
# Submitted via: dBpowerAMP V4.0
#
DISCID=d211480f
DTITLE=Mick Harris - Hednod Sessions [CD2)
DYEAR=2004
DGENRE=Bass
TTITLE0=red triangle
TTITLE1=sticker
TTITLE2=dippers
TTITLE3=the shed
TTITLE4=sidewalk
TTITLE5=backroom
TTITLE6=visiting officer
TTITLE7=hiding place
TTITLE8=shorting
TTITLE9=sweet as
TTITLE10=where
TTITLE11=then 3 more
TTITLE12=touch
TTITLE13=leadin
TTITLE14=photographic
EXTD=
EXTT0=
EXTT1=
EXTT2=
EXTT3=
EXTT4=
EXTT5=
EXTT6=
EXTT7=
EXTT8=
EXTT9=
EXTT10=
EXTT11=
EXTT12=
EXTT13=
EXTT14=
PLAYORDER=
